<svg id="Capa_1" data-name="Capa 1" xmlns="http://www.w3.org/2000/svg" viewBox="0 0 453.43 512"><defs><style>.cls-1{fill:#444b4b;}</style></defs><title>pdf-img</title><path class="cls-1" d="M149.08,262.34c0-13.79-9.57-22-26.47-22-6.89,0-11.56.66-14,1.33v44.27a52.52,52.52,0,0,0,11.33.88C138,286.81,149.08,277.7,149.08,262.34Z" transform="translate(-29.28)"/><path class="cls-1" d="M253.65,240.77a70.6,70.6,0,0,0-15.36,1.33V340.2c2.9.68,7.57.68,11.8.68,30.69.21,50.71-16.68,50.71-52.5C301,257.23,282.78,240.77,253.65,240.77Z" transform="translate(-29.28)"/><path class="cls-1" d="M454,183.14H441.72V123.82a8.65,8.65,0,0,0-.11-1.12,9.85,9.85,0,0,0-2.38-6.5L340.52,3.43s-.06,0-.08-.07a10,10,0,0,0-2-1.68c-.21-.14-.43-.26-.66-.39a10.35,10.35,0,0,0-2-.83c-.19-.05-.35-.13-.54-.18A10,10,0,0,0,333,0H90.35A20.1,20.1,0,0,0,70.27,20.08V183.14H58a28.7,28.7,0,0,0-28.7,28.7V361.07A28.7,28.7,0,0,0,58,389.76H70.28V491.92A20.1,20.1,0,0,0,90.35,512H421.65a20.11,20.11,0,0,0,20.08-20.08V389.76H454a28.7,28.7,0,0,0,28.7-28.7V211.84A28.7,28.7,0,0,0,454,183.14ZM90.35,20.08H322.92V122.81a10,10,0,0,0,10,10h88.69v50.3H90.35ZM336.83,287.25c0,28.7-10.45,48.49-24.93,60.73-15.78,13.12-39.8,19.35-69.16,19.35a294.69,294.69,0,0,1-38.48-2.22V217.86c12.46-2,28.7-3.11,45.83-3.11,28.46,0,46.92,5.12,61.39,16C327,242.33,336.83,260.78,336.83,287.25ZM75,365.78V217.86c10.45-1.77,25.14-3.11,45.82-3.11,20.91,0,35.81,4,45.82,12,9.57,7.56,16,20,16,34.7S177.78,288.6,168.88,297c-11.57,10.9-28.69,15.8-48.72,15.8a84.88,84.88,0,0,1-11.56-.67v53.61H75ZM421.65,486.49H90.35V389.76H421.65v96.72Zm29.09-242.82H393.12v34.26H447V305.5H393.12v60.28h-34V215.86h91.64Z" transform="translate(-29.28)"/></svg>