<?xml version="1.0" standalone="no"?>
<!DOCTYPE svg PUBLIC "-//W3C//DTD SVG 20010904//EN"
 "http://www.w3.org/TR/2001/REC-SVG-20010904/DTD/svg10.dtd">
<svg version="1.0" xmlns="http://www.w3.org/2000/svg"
 width="70.000000pt" height="70.000000pt" viewBox="0 0 70.000000 70.000000"
 preserveAspectRatio="xMidYMid meet">
<metadata>
Created by potrace 1.11, written by Peter Selinger 2001-2013
</metadata>
<g transform="translate(0.000000,70.000000) scale(0.100000,-0.100000)"
fill="#000000" stroke="none">
<path d="M237 576 c-141 -58 -219 -171 -219 -316 0 -64 27 -159 47 -166 7 -3
37 -4 66 -2 53 3 54 3 27 17 -16 8 -28 18 -28 22 0 4 42 6 93 6 85 -2 92 -1
95 18 3 19 -3 21 -80 24 -46 1 -85 4 -87 7 -13 13 -1 136 17 177 34 77 153
188 164 154 2 -6 4 -94 3 -194 0 -177 0 -183 20 -183 19 0 20 6 18 152 l-2
153 32 -75 c40 -93 61 -127 104 -165 l34 -31 -68 1 c-82 2 -92 -1 -86 -23 3
-15 17 -17 96 -15 l92 1 -28 -20 c-15 -11 -27 -23 -27 -26 0 -4 29 -5 65 -4
62 4 66 5 82 35 10 20 18 64 21 117 3 69 0 95 -17 141 -64 170 -269 262 -434
195z"/>
</g>
</svg>
