<svg xmlns="http://www.w3.org/2000/svg" viewBox="0 0 323.17 324.1"><defs><style>.cls-1{fill:#797f80;}.cls-2{fill:#5e6465;}.cls-3{fill:#fff;opacity:0.7;}</style></defs><title>Artboard 20</title><g id="FRESH_AIR" data-name="FRESH AIR"><rect class="cls-1" x="-269.87" y="-241.31" width="2558.59" height="1587.19"/><rect class="cls-2" x="-271.91" y="-234.32" width="835.2" height="768.83"/><path class="cls-3" d="M215.89,143.93h0a3.2,3.2,0,0,0-3.2-3.2H181.81a3.2,3.2,0,0,0-3.2,3.2h0a3.2,3.2,0,0,0,3.2,3.2H212.7A3.2,3.2,0,0,0,215.89,143.93ZM323.17,324.1H0V0H323.17ZM229.76,118.49V65.23a6.41,6.41,0,0,0-6.39-6.39H99.83a6.41,6.41,0,0,0-6.39,6.39v53.26Zm-17.06-8.64H181.81a3.2,3.2,0,0,1-3.2-3.2h0a3.2,3.2,0,0,1,3.2-3.2H212.7a3.2,3.2,0,0,1,3.2,3.2h0A3.2,3.2,0,0,1,212.7,109.85Zm-118,17.67V266s-.89,6.39,6.39,6.39H223.53s6.39,0,6.39-6.39V127.52S94.66,126.2,94.66,127.52Z"/></g></svg>