<svg xmlns="http://www.w3.org/2000/svg" viewBox="0 0 322.88 323.81"><defs><style>.cls-1{fill:#797f80;}.cls-2{fill:#5e6465;}.cls-3{fill:#fff;opacity:0.7;}</style></defs><title>Artboard 13</title><g id="FRESH_AIR" data-name="FRESH AIR"><rect class="cls-1" x="-1122.35" y="-240.84" width="2558.59" height="1587.19"/><rect class="cls-2" x="-263.3" y="-233.85" width="835.2" height="768.83"/><path class="cls-3" d="M322.88,323.81H0V0H322.88ZM74,202.48v14.2H253.11v-14.2ZM162.41,73H81.72A7.77,7.77,0,0,0,74,80.79V196h88.44Zm-10.82,83.09h-.87a2.4,2.4,0,0,1-2.39-2.39V136.25a2.4,2.4,0,0,1,2.39-2.39h.87a2.4,2.4,0,0,1,2.39,2.39v17.49A2.4,2.4,0,0,1,151.59,156.13ZM74,223.13v21.3a7.77,7.77,0,0,0,7.75,7.75H245.36a7.77,7.77,0,0,0,7.75-7.75v-21.3Zm35.29,14.64v-.87a2.4,2.4,0,0,1,2.39-2.39h17.49a2.4,2.4,0,0,1,2.39,2.39v.87a2.4,2.4,0,0,1-2.39,2.39H111.66A2.4,2.4,0,0,1,109.26,237.77Zm91.44,0v-.87a2.4,2.4,0,0,1,2.39-2.39h17.49A2.4,2.4,0,0,1,223,236.9v.87a2.4,2.4,0,0,1-2.39,2.39H203.1A2.4,2.4,0,0,1,200.7,237.77ZM168.86,122.43V196h84.24V122.43Zm11.45,33.7h-.87a2.4,2.4,0,0,1-2.39-2.39V136.25a2.4,2.4,0,0,1,2.39-2.39h.87a2.4,2.4,0,0,1,2.39,2.39v17.49A2.4,2.4,0,0,1,180.31,156.13ZM253.11,116V80.79A7.77,7.77,0,0,0,245.36,73h-76.5V116Zm-72.19-10.81H180a2.4,2.4,0,0,1-2.39-2.39V85.28A2.4,2.4,0,0,1,180,82.89h.87a2.4,2.4,0,0,1,2.39,2.39v17.49A2.4,2.4,0,0,1,180.92,105.17Z"/></g></svg>