<svg id="Layer_1" data-name="Layer 1" xmlns="http://www.w3.org/2000/svg" viewBox="0 0 50 50"><defs><style>.cls-1{fill:#fff;}</style></defs><title>cabinets_nav_icon</title><path class="cls-1" d="M49.5,2.62A2.13,2.13,0,0,0,47.38.5H26.46V12.24h23Zm-19.09,6a.66.66,0,0,1-.66.66h-.24a.66.66,0,0,1-.66-.66V3.85a.66.66,0,0,1,.66-.66h.24a.66.66,0,0,1,.66.66Z"/><rect class="cls-1" x="0.5" y="35.9" width="49" height="3.88"/><path class="cls-1" d="M49.5,14h-23V34.14h23ZM30.24,22.57a.66.66,0,0,1-.66.66h-.24a.66.66,0,0,1-.66-.66V17.79a.66.66,0,0,1,.66-.66h.24a.66.66,0,0,1,.66.66Z"/><path class="cls-1" d="M2.62,49.5H47.38a2.13,2.13,0,0,0,2.12-2.12V41.55H.5v5.83A2.13,2.13,0,0,0,2.62,49.5Zm32.55-4.18a.66.66,0,0,1,.66-.66H40.6a.66.66,0,0,1,.66.66v.24a.66.66,0,0,1-.66.66H35.82a.66.66,0,0,1-.66-.66Zm-25,0a.66.66,0,0,1,.66-.66h4.78a.66.66,0,0,1,.66.66v.24a.66.66,0,0,1-.66.66H10.81a.66.66,0,0,1-.66-.66Z"/><path class="cls-1" d="M24.69.5H2.62A2.13,2.13,0,0,0,.5,2.62V34.14H24.69Zm-2.3,22.07a.66.66,0,0,1-.66.66h-.24a.66.66,0,0,1-.66-.66V17.79a.66.66,0,0,1,.66-.66h.24a.66.66,0,0,1,.66.66Z"/></svg>