<svg xmlns="http://www.w3.org/2000/svg" viewBox="0 0 321.4 320.67"><defs><style>.cls-1{fill:#797f80;}.cls-2{fill:#5e6465;}.cls-3{opacity:0.7;}.cls-4{fill:#fff;}</style></defs><title>Artboard 1 copy 4</title><g id="FRESH_AIR" data-name="FRESH AIR"><rect class="cls-1" x="-1965.88" y="-244.89" width="2558.59" height="1587.19"/><rect class="cls-2" x="-242.74" y="-237.9" width="835.2" height="768.83"/><g class="cls-3"><path class="cls-4" d="M.09,320.67.47,115.32H57.68s31.2-2.17,31.2,23v16.47H85s-6.5-.87-6.5,6.07v36.4a6.2,6.2,0,0,0,6.5,5.63h4.77v13.65a80.82,80.82,0,1,0,161.65,0V86.72s9.1,0,9.1-7.37V46.41s0-7.8-9.1-7.8V0h70l0,11.92V320.67Z"/><path class="cls-4" d="M0,0C0,15.6.47,67.67.47,67.67H62.88s32.07-.43,55,25.57,18.64,62,18.64,62h6.5s4.77.43,4.77,6.5v35.54c0,5.63-4.33,6.07-4.33,6.07h-5.2v15.17a32.07,32.07,0,0,0,64.14,0V86.68s-9.1,0-9.1-7.37V46.37s0-7.8,9.1-7.8V.07H1.76Z"/></g></g></svg>