<svg id="Layer_1" data-name="Layer 1" xmlns="http://www.w3.org/2000/svg" viewBox="0 0 50 50"><defs><style>.cls-1{fill:#fff;}</style></defs><title>plumbing_nav_icon</title><path class="cls-1" d="M3.57,11.65V19.5m0,0H13s5.14-.36,5.14,3.79V26H17.5a.92.92,0,0,0-1.07,1v6a1,1,0,0,0,1.07.93h.79v2.25a13.32,13.32,0,1,0,26.64,0V14.79s1.5,0,1.5-1.21V8.14a1.34,1.34,0,0,0-1.5-1.29V.5H36.86V6.85a1.34,1.34,0,0,0-1.5,1.29v5.43c0,1.21,1.5,1.21,1.5,1.21V36.5a5.29,5.29,0,0,1-10.57,0V34h.86s.71-.07.71-1V27.15a1,1,0,0,0-.79-1.07H26s.71-5.93-3.07-10.21a12.89,12.89,0,0,0-9.07-4.21H3.57Z"/></svg>