<svg xmlns="http://www.w3.org/2000/svg" viewBox="0 0 325.23 326.17"><defs><style>.cls-1{fill:#797f80;}.cls-2{fill:#5e6465;}.cls-3{fill:#fff;opacity:0.7;}</style></defs><title>Artboard 14</title><g id="FRESH_AIR" data-name="FRESH AIR"><rect class="cls-1" x="-268.92" y="-1026.29" width="2558.59" height="1587.19"/><rect class="cls-2" x="-270.95" y="-223.94" width="835.2" height="768.83"/><path class="cls-3" d="M325.23,326.17H0V0H325.23ZM113.51,108.5v-61a6.08,6.08,0,0,0-6.06-6.06H46.14a6.08,6.08,0,0,0-6.06,6.06v61a6.08,6.08,0,0,0,6.06,6.06h61.31A6.08,6.08,0,0,0,113.51,108.5Zm86.76,0v-61a6.08,6.08,0,0,0-6.06-6.06H132.9a6.08,6.08,0,0,0-6.06,6.06v61a6.08,6.08,0,0,0,6.06,6.06h61.31A6.08,6.08,0,0,0,200.27,108.5Zm85.51,0v-61a6.08,6.08,0,0,0-6.06-6.06H218.41a6.08,6.08,0,0,0-6.06,6.06v61a6.08,6.08,0,0,0,6.06,6.06h61.31A6.08,6.08,0,0,0,285.78,108.5ZM113.51,194.78v-61a6.08,6.08,0,0,0-6.06-6.06H46.14a6.08,6.08,0,0,0-6.06,6.06v61a6.08,6.08,0,0,0,6.06,6.06h61.31A6.08,6.08,0,0,0,113.51,194.78Zm86.76,0v-61a6.08,6.08,0,0,0-6.06-6.06H132.9a6.08,6.08,0,0,0-6.06,6.06v61a6.08,6.08,0,0,0,6.06,6.06h61.31A6.08,6.08,0,0,0,200.27,194.78Zm85.51,0v-61a6.08,6.08,0,0,0-6.06-6.06H218.41a6.08,6.08,0,0,0-6.06,6.06v61a6.08,6.08,0,0,0,6.06,6.06h61.31A6.08,6.08,0,0,0,285.78,194.78ZM113.51,281.06v-61a6.08,6.08,0,0,0-6.06-6.06H46.14a6.08,6.08,0,0,0-6.06,6.06v61a6.08,6.08,0,0,0,6.06,6.06h61.31A6.08,6.08,0,0,0,113.51,281.06Zm86.76,0v-61a6.08,6.08,0,0,0-6.06-6.06H132.9a6.08,6.08,0,0,0-6.06,6.06v61a6.08,6.08,0,0,0,6.06,6.06h61.31A6.08,6.08,0,0,0,200.27,281.06Zm85.51,0v-61a6.08,6.08,0,0,0-6.06-6.06H218.41a6.08,6.08,0,0,0-6.06,6.06v61a6.08,6.08,0,0,0,6.06,6.06h61.31A6.08,6.08,0,0,0,285.78,281.06Z"/></g></svg>