<svg id="Layer_1" data-name="Layer 1" xmlns="http://www.w3.org/2000/svg" viewBox="0 0 50 50"><defs><style>.cls-1{fill:#fff;}</style></defs><title>applicances_nav_icon</title><path class="cls-1" d="M9.62,16.26V48a1.29,1.29,0,0,0,1.47,1.47h28.1A1.43,1.43,0,0,0,40.66,48V16.26S9.62,16,9.62,16.26ZM28.89,20a.74.74,0,0,1,.73-.73h7.09a.74.74,0,0,1,.73.73h0a.74.74,0,0,1-.73.73H29.62a.74.74,0,0,1-.73-.73Z"/><path class="cls-1" d="M40.62,14.18V2A1.47,1.47,0,0,0,39.15.5H10.81A1.47,1.47,0,0,0,9.34,2V14.18Zm-11-3.45h7.09a.73.73,0,0,1,0,1.47H29.62a.73.73,0,0,1,0-1.47Z"/></svg>