<svg id="Layer_1" data-name="Layer 1" xmlns="http://www.w3.org/2000/svg" viewBox="0 0 50 50"><defs><style>.cls-1{fill:#fff;}</style></defs><title>lighting_nav_icon</title><path class="cls-1" d="M2.14,33H16.66V47.64c0,2,1.44,1.86,1.44,1.86H47.86c1.18,0,1.25-1.33,1.25-1.33V18.29A1.22,1.22,0,0,0,48,17.07H33.27V1.64C33.27.58,31.9.5,31.9.5H2.36A1.53,1.53,0,0,0,.88,1.75V31.63C.88,32.74,2.14,33,2.14,33Zm32.13-2.53h2.17V17.79h.9V30.43h2.44V45.07H38.36a1.64,1.64,0,0,1-2.79,0h-1.3ZM28.46,17.32h.9v6.52h2.44V38.49H30.38a1.64,1.64,0,0,1-2.79,0h-1.3V23.84h2.17ZM17.69,6.8h9.79v9.83H17.69ZM6.5,6.8h9.79v9.83H6.5Zm0,11.25h9.79v9.83H6.5Z"/></svg>