<svg xmlns="http://www.w3.org/2000/svg" viewBox="0 0 322.88 323.81"><defs><style>.cls-1{fill:#797f80;}.cls-2{fill:#5e6465;}.cls-3{opacity:0.7;}.cls-4{fill:#fff;}</style></defs><title>Artboard 15</title><g id="FRESH_AIR" data-name="FRESH AIR"><rect class="cls-1" x="-1126.35" y="-1027.29" width="2558.59" height="1587.19"/><rect class="cls-2" x="-267.3" y="-224.94" width="835.2" height="768.83"/><g class="cls-3"><path class="cls-4" d="M197,155.91v79.89h-7.72a9,9,0,0,1-15.23,0h-7.07V155.91h11.82V120.32h4.88v35.59ZM112.37,178H59V124.33h53.4Zm0-61.4H59V62.94h53.4Zm61.06,0H120V62.94h53.4Zm67,75.26v79.89h-7.72a9,9,0,0,1-15.23,0h-7.07V191.84h11.82v-69h4.88v69Zm82.41,132H0V0H322.88Zm-208.52-38.1c0,10.78,7.88,10.16,7.88,10.16H284.63c6.43,0,6.84-7.26,6.84-7.26v-163c0-6-6-6.64-6-6.64H205V34.78c0-5.81-7.47-6.22-7.47-6.22H36.39c-6.84,0-8.09,6.84-8.09,6.84v163c0,6,6.84,7.26,6.84,7.26h79.22Z"/></g></g></svg>